<svg width="28" height="29" viewBox="0 0 28 29" fill="none" xmlns="http://www.w3.org/2000/svg">
<path d="M16.9516 11.9313L11.0482 17.8346C10.2899 17.0763 9.82324 16.038 9.82324 14.883C9.82324 12.573 11.6899 10.7063 13.9999 10.7063C15.1549 10.7063 16.1932 11.173 16.9516 11.9313Z" stroke="white" stroke-opacity="0.5" stroke-width="1.5" stroke-linecap="round" stroke-linejoin="round"/>
<path d="M20.7898 7.61462C18.7482 6.07462 16.4148 5.23462 13.9998 5.23462C9.88148 5.23462 6.04315 7.66129 3.37148 11.8613C2.32148 13.5063 2.32148 16.2713 3.37148 17.9163C4.29315 19.363 5.36648 20.6113 6.53315 21.6146" stroke="white" stroke-opacity="0.5" stroke-width="1.5" stroke-linecap="round" stroke-linejoin="round"/>
<path d="M9.82324 23.6681C11.1532 24.2281 12.5649 24.5314 13.9999 24.5314C18.1182 24.5314 21.9566 22.1048 24.6282 17.9048C25.6782 16.2598 25.6782 13.4948 24.6282 11.8498C24.2432 11.2431 23.8232 10.6714 23.3916 10.1348" stroke="white" stroke-opacity="0.5" stroke-width="1.5" stroke-linecap="round" stroke-linejoin="round"/>
<path d="M18.0952 15.6997C17.7918 17.3447 16.4502 18.6864 14.8052 18.9897" stroke="white" stroke-opacity="0.5" stroke-width="1.5" stroke-linecap="round" stroke-linejoin="round"/>
<path d="M11.0485 17.8347L2.3335 26.5497" stroke="white" stroke-opacity="0.5" stroke-width="1.5" stroke-linecap="round" stroke-linejoin="round"/>
<path d="M25.6667 3.21631L16.9517 11.9313" stroke="white" stroke-opacity="0.5" stroke-width="1.5" stroke-linecap="round" stroke-linejoin="round"/>
</svg>
