<svg width="30" height="31" viewBox="0 0 30 31" fill="none" xmlns="http://www.w3.org/2000/svg">
<path d="M7.5 13.3831V10.8831C7.5 6.74556 8.75 3.38306 15 3.38306C21.25 3.38306 22.5 6.74556 22.5 10.8831V13.3831" stroke="#808080" stroke-width="2" stroke-linecap="round" stroke-linejoin="round"/>
<path d="M15 24.0081C16.7259 24.0081 18.125 22.6089 18.125 20.8831C18.125 19.1572 16.7259 17.7581 15 17.7581C13.2741 17.7581 11.875 19.1572 11.875 20.8831C11.875 22.6089 13.2741 24.0081 15 24.0081Z" stroke="#808080" stroke-width="2" stroke-linecap="round" stroke-linejoin="round"/>
<path d="M21.25 28.3831H8.75C3.75 28.3831 2.5 27.1331 2.5 22.1331V19.6331C2.5 14.6331 3.75 13.3831 8.75 13.3831H21.25C26.25 13.3831 27.5 14.6331 27.5 19.6331V22.1331C27.5 27.1331 26.25 28.3831 21.25 28.3831Z" stroke="#808080" stroke-width="2" stroke-linecap="round" stroke-linejoin="round"/>
</svg>
